<?xml version="1.0" encoding="UTF-8" standalone="no"?>
<svg width="246px" height="246px" viewBox="0 0 246 246" version="1.1" xmlns="http://www.w3.org/2000/svg" xmlns:xlink="http://www.w3.org/1999/xlink">
    <!-- Generator: Sketch 3.8.3 (29802) - http://www.bohemiancoding.com/sketch -->
    <title>Azure</title>
    <desc>Created with Sketch.</desc>
    <defs></defs>
    <g id="Page-1" stroke="none" stroke-width="1" fill="none" fill-rule="evenodd">
        <g id="Azure">
            <path d="M115.7,0 L129.36,0 C142.15,1.05 154.9,3.39 166.88,8.09 C200.88,20.97 228.46,49.74 239.76,84.31 C243.25,94.45 244.88,105.08 246,115.7 L246,129.36 C245.01,141.1 243.03,152.81 239,163.92 C227.69,196.31 202.06,223.32 170.4,236.5 C157.4,242.06 143.4,244.89 129.34,246 L115.68,246 C92.66,244.13 69.87,236.63 51.24,222.78 C28.6,206.53 11.63,182.44 4.36,155.51 C1.96,146.97 0.81,138.15 0,129.34 L0,115.68 C0.93,107.72 1.88,99.74 3.96,91.99 C11.02,64.46 28.17,39.76 51.24,23.22 C69.88,9.37 92.67,1.86 115.7,0 L115.7,0 Z" id="Shape" fill="#0072C6"></path>
            <path d="M74.01,75.99 C80.69,69.68 89.68,65.5 98.98,65.66 C111.31,65.29 123.78,71.9 129.99,82.63 C127.06,83.79 124.04,84.72 121.02,85.62 C117,81.53 112.6,77.34 106.82,76 C98.65,74.25 89.39,75.19 82.85,80.83 C77.51,84.87 74.59,91.08 72.76,97.35 C66.7,97.75 60.16,96.46 54.59,99.55 C47.21,103.28 42.51,111.79 43.79,120.04 C45,129.7 54.17,137.82 63.99,137.31 C85.62,137.18 107.26,137.45 128.89,137.18 C131.46,134.46 134.04,131.15 138.03,130.65 C145.05,129.33 152.14,135.89 151.22,143.03 C150.95,150.04 142.96,155.38 136.42,152.91 C133.18,151.92 131.09,149.11 128.87,146.74 C107.25,146.44 85.61,146.68 63.98,146.64 C53.24,147.13 42.74,140.66 37.72,131.27 C31.37,119.64 34.02,103.81 44.33,95.31 C50.03,89.75 58.04,87.98 65.75,87.78 C68.44,83.81 70.49,79.34 74.01,75.99 L74.01,75.99 Z" id="Shape" fill="#FFFFFF"></path>
            <path d="M121.45,90.26 C135.9,82.62 154.83,85.04 166.82,96.18 C170.54,99.23 173.09,103.33 175.8,107.22 C176.87,108.82 179.1,108.3 180.72,108.72 C193.86,110.28 205.64,119.94 209.73,132.53 C214.73,146.23 210.21,162.68 198.98,171.96 C192.61,177.28 184.36,180.52 176.01,180.33 C151.33,180.28 126.64,180.34 101.96,180.31 C87.28,180.12 74.12,167.98 72.25,153.5 C90.04,153.39 107.85,153.26 125.63,153.55 C129.72,156.28 133.7,160.05 139.05,159.63 C150.8,160.81 161.02,147.62 156.66,136.6 C154.16,128.47 145.5,122.94 137.05,124.44 C130.73,124.55 127.51,132.19 121.04,131.29 C108.69,131.25 96.34,131.25 83.98,131.29 C81.94,131.31 79.91,131.12 77.9,130.82 C82.48,122.78 91.52,118.88 100.21,117.13 C103.18,105.73 110.8,95.5 121.45,90.26 L121.45,90.26 Z" id="Shape" fill="#FFFFFF"></path>
        </g>
    </g>
</svg>